
<svg width="48" height="48" viewBox="0 0 48 48" xmlns="http://www.w3.org/2000/svg">
  <g fill="none" fill-rule="evenodd">
    <rect fill="#15418C" width="48" height="48" rx="24"/>
    <path d="M35.77 14.97c.365-1.095.296-1.94-.206-2.534-.594-.502-1.439-.57-2.535-.206-1.096.366-2.078.982-2.945 1.85l-2.74 2.74-11.387-2.723c-.183-.057-.354-.011-.514.137l-2.192 2.192a.529.529 0 00-.154.462c.034.183.132.32.291.412l8.7 4.777-4.436 4.436-3.322-.907a.352.352 0 00-.137-.018.533.533 0 00-.394.154l-1.643 1.661a.586.586 0 00-.154.428c.022.183.096.314.222.394l4.315 3.237 3.236 4.315c.103.126.24.2.412.223h.034c.16 0 .29-.051.394-.154l1.643-1.644a.522.522 0 00.138-.53l-.908-3.323 4.435-4.436 4.778 8.7c.068.149.188.24.36.274a.377.377 0 00.12.017.484.484 0 00.324-.102l2.193-1.644c.193-.16.262-.348.205-.565l-2.74-11.92 2.757-2.756c.868-.868 1.484-1.85 1.85-2.946z" fill="#FFF"/>
  </g>
</svg>