<svg width="80" height="78" xmlns="http://www.w3.org/2000/svg"><path d="M56.941 11.292a5.128 5.128 0 015.123 5.126 5.13 5.13 0 01-3.865 4.966v25.399l14.066 13.599h.75V77.5H6.844V60.382h.748l14.356-13.877v-25.12a5.132 5.132 0 01-3.867-4.967 5.13 5.13 0 015.126-5.126 5.129 5.129 0 015.125 5.126 5.13 5.13 0 01-3.867 4.967l-.001 24.395h31.218V21.384a5.13 5.13 0 01-3.865-4.966 5.128 5.128 0 015.123-5.126zm13.557 51.606H9.361v12.085h61.137V62.898zm-55.113 2.048a3.999 3.999 0 013.995 3.996 3.998 3.998 0 01-3.995 3.993 3.998 3.998 0 01-3.996-3.993 3.999 3.999 0 013.996-3.996zm19.704 0a3.999 3.999 0 013.995 3.996 3.998 3.998 0 01-3.995 3.993 3.998 3.998 0 01-3.996-3.993 3.999 3.999 0 013.996-3.996zm9.556 0a4.001 4.001 0 013.998 3.996 4 4 0 01-3.998 3.993 3.998 3.998 0 01-3.996-3.993 3.999 3.999 0 013.996-3.996zm9.559 0a3.999 3.999 0 013.995 3.996 3.998 3.998 0 01-3.995 3.993 3.998 3.998 0 01-3.996-3.993 3.999 3.999 0 013.996-3.996zm-38.82 2.516a1.48 1.48 0 00-1.479 1.48 1.48 1.48 0 002.96 0 1.48 1.48 0 00-1.48-1.48zm19.705 0a1.48 1.48 0 00-1.48 1.48 1.48 1.48 0 002.96 0 1.48 1.48 0 00-1.48-1.48zm9.556 0a1.48 1.48 0 00-1.48 1.48 1.48 1.48 0 002.962 0c0-.818-.667-1.48-1.482-1.48zm9.559 0a1.48 1.48 0 00-1.48 1.48 1.48 1.48 0 002.96 0 1.48 1.48 0 00-1.48-1.48zm1.94-19.165H23.718L11.214 60.382h57.431L56.144 48.297zM6.79 0l1.779 1.779a20.564 20.564 0 00-6.062 14.639A20.562 20.562 0 008.57 31.054l-1.78 1.779C-2.262 23.783-2.262 9.051 6.79 0zm66.282 0c9.053 9.05 9.053 23.782 0 32.833l-1.779-1.779a20.562 20.562 0 006.062-14.636c0-5.53-2.152-10.729-6.062-14.64L73.073 0zm-62.18 4.099l1.778 1.779a14.803 14.803 0 00-4.366 10.537c0 3.983 1.55 7.725 4.366 10.538l-1.779 1.781a17.304 17.304 0 01-5.103-12.319c0-4.652 1.812-9.025 5.103-12.316zm58.079 0c6.79 6.79 6.79 17.842 0 24.635l-1.779-1.781c5.81-5.81 5.81-15.263 0-21.075l1.779-1.78zM15.324 8.535l1.78 1.779c-3.365 3.364-3.365 8.839 0 12.205l-1.78 1.78c-4.345-4.346-4.345-11.419 0-15.764zm49.21 0a11.069 11.069 0 013.267 7.883c0 2.976-1.16 5.774-3.266 7.88l-1.779-1.779a8.562 8.562 0 002.529-6.101 8.563 8.563 0 00-2.529-6.104l1.779-1.78zm-41.326 5.274c-1.44 0-2.61 1.17-2.61 2.609a2.611 2.611 0 002.61 2.606c1.439 0 2.609-1.17 2.609-2.606 0-1.44-1.17-2.61-2.61-2.61zm33.733 0a2.609 2.609 0 000 5.216 2.61 2.61 0 002.607-2.607c0-1.44-1.17-2.61-2.607-2.61z" fill="#FFF" fill-rule="evenodd"/></svg>